<svg id="Layer_1" data-name="Layer 1" xmlns="http://www.w3.org/2000/svg" width="64" height="64" viewBox="0 0 64 64"><defs><style>.cls-1{fill:#666;}</style></defs><title>user_edit_2</title><path id="user_edit_2" class="cls-1" d="M57.28,34.78L55.21,32.7a2.54,2.54,0,0,0-3.47,0l-1.79,1.68v0h0L34.7,49.68h0l-0.36.37a0.93,0.93,0,0,0-.19.26l-4,8.24a1,1,0,0,0,1.34,1.34l8.19-4.06a1,1,0,0,0,.26-0.19l0.37-.37h0L55.47,40h0l1.81-1.71A2.49,2.49,0,0,0,57.28,34.78ZM35.56,52L38,54.41l-4.81,2.38Zm4,1.18-2.75-2.75L50.63,36.5l2.74,2.76Zm16.33-16.3-1.08,1-2.74-2.76,1.06-1a0.46,0.46,0,0,1,.66,0l2.08,2.08A0.47,0.47,0,0,1,55.89,36.85ZM44.74,34.36a22.92,22.92,0,0,0-12.43-7.74,11,11,0,1,0-10.63,0A23,23,0,0,0,4,49a1,1,0,0,0,2,0A21,21,0,0,1,43.2,35.64,1,1,0,1,0,44.74,34.36ZM18,17a9,9,0,1,1,9,9A9,9,0,0,1,18,17Z"/></svg>