<svg width="48" height="45" viewBox="0 0 48 45" fill="none" xmlns="http://www.w3.org/2000/svg">
<path d="M28.8 13.704L36 20.904V44.904H31.2V30.504H14.4L9.6 37.704V44.904H4.8V30.504L7.2 28.104V20.904L0 13.704L2.4 11.304L7.2 16.104H12V23.304C12 23.9405 12.2529 24.551 12.7029 25.0011C13.153 25.4511 13.7635 25.704 14.4 25.704H24C24.6365 25.704 25.247 25.4511 25.6971 25.0011C26.1471 24.551 26.4 23.9405 26.4 23.304V16.104L28.8 13.704ZM40.8 6.504V1.704L31.2 11.304L38.4 18.504L40.8 16.104L43.2 18.504L48 13.704L40.8 6.504ZM22.8 17.304L6 0.504C5.352 -0.168 4.296 -0.168 3.6 0.504C2.928 1.152 2.928 2.208 3.6 2.904L20.4 19.704C21.048 20.376 22.104 20.376 22.8 19.704C23.472 19.056 23.472 18 22.8 17.304Z" fill="white"/>
</svg>

