<svg xmlns="http://www.w3.org/2000/svg" width="24" height="24" viewBox="0 0 24 24"><path d="M11.499 0c-6.329 0-11.487 5.148-11.499 11.478-.006 3.072 1.184 5.962 3.352 8.139 2.168 2.175 5.053 3.377 8.126 3.383h.022c6.328 0 11.487-5.149 11.5-11.479.012-6.34-5.137-11.509-11.501-11.521zm.001 22.5zm4.588-7.102c.194.195.193.512-.002.707-.098.098-.225.146-.353.146-.127 0-.256-.049-.354-.146l-3.882-3.897-3.896 3.882c-.098.098-.226.146-.354.146-.127 0-.255-.049-.353-.146-.195-.196-.195-.513.001-.707l3.896-3.882-3.881-3.898c-.195-.197-.194-.513.002-.707.195-.197.512-.196.707 0l3.881 3.896 3.896-3.881c.195-.195.513-.195.707.001.195.195.195.512-.001.707l-3.896 3.882 3.882 3.897z"/></svg>