<svg width="40" height="20" viewBox="0 0 40 20" fill="none" xmlns="http://www.w3.org/2000/svg">
<path d="M12 14C12 15.5913 11.3679 17.1174 10.2426 18.2426C9.11742 19.3679 7.5913 20 6 20C4.4087 20 2.88258 19.3679 1.75736 18.2426C0.632141 17.1174 0 15.5913 0 14C0 12.46 0.58 11.06 1.52 10C0.58 8.94 0 7.54 0 6C0 4.4087 0.632141 2.88258 1.75736 1.75736C2.88258 0.632141 4.4087 0 6 0C7.5913 0 9.11742 0.632141 10.2426 1.75736C11.3679 2.88258 12 4.4087 12 6C14.66 6.16 17.34 6.34 20 6.34C22.66 6.34 25.34 6.16 28 6C28 4.4087 28.6321 2.88258 29.7574 1.75736C30.8826 0.632141 32.4087 0 34 0C35.5913 0 37.1174 0.632141 38.2426 1.75736C39.3679 2.88258 40 4.4087 40 6C40 7.54 39.42 8.94 38.48 10C39.42 11.06 40 12.46 40 14C40 15.5913 39.3679 17.1174 38.2426 18.2426C37.1174 19.3679 35.5913 20 34 20C32.4087 20 30.8826 19.3679 29.7574 18.2426C28.6321 17.1174 28 15.5913 28 14C25.34 13.84 22.66 13.66 20 13.66C17.34 13.66 14.66 13.84 12 14Z" fill="white"/>
</svg>

